# xmcd
#
# Track frame offsets: 
#        150
#        12054
#        27771
#        49581
#        74533
#        105718
#        138252
#        154719
#        172073
#        202551
#
# Disc length: 3176 seconds
#
# Revision: 0
# Processed by: cddbd v1.5.2PL0 Copyright (c) Steve Scherf et al.
# Submitted via: ExactAudioCopy v1.0b1
#
DISCID=770c660a
DTITLE=Michael Messer's Mitra - Call Of The Blues
DYEAR=2016
DGENRE=Blues
TTITLE0=You Got To Move
TTITLE1=Anyway The Wind Blows
TTITLE2=Rollin' and Tumblin'
TTITLE3=Bhupali Blues
TTITLE4=You Gonna Be Sorry
TTITLE5=Blue Letters
TTITLE6=Rolling in my Sweet Baby's Arms
TTITLE7=I Can't Be Satisfied
TTITLE8=Lucky Charms
TTITLE9=Sweetheart Darling
EXTD=
EXTT0=
EXTT1=
EXTT2=
EXTT3=
EXTT4=
EXTT5=
EXTT6=
EXTT7=
EXTT8=
EXTT9=
PLAYORDER=
